# xmcd CD database file
#
# Track frame offsets:
#	150
#	14900
#	28830
#	44550
#	58205
#	71955
#	88657
#	99772
#	114685
#	130890
#	147112
#	160515
#
# Disc length: 2345 seconds
#
# Revision: 1
# Processed by: cddbd v1.5.2PL0 Copyright (c) Steve Scherf et al.
# Submitted via: CDex 1.51
#
DISCID=ad09270c
DTITLE=Mark Wills - Mark Wills
DYEAR=1996
DGENRE=Country
TTITLE0=High Low And In Between
TTITLE1=Jacob's Ladder
TTITLE2=What's Not To Love
TTITLE3=Any Fool Can Say Goodbye
TTITLE4=Ace Of Hearts
TTITLE5=Leavin' Comin' On
TTITLE6=Sudden Stop
TTITLE7=I Wonder If he Knows
TTITLE8=Places I've Never Been
TTITLE9=Squeeze Box
TTITLE10=What Love Is
TTITLE11=Look Where She Is Today
EXTD=YEAR: 1996
EXTT0=
EXTT1=
EXTT2=
EXTT3=
EXTT4=
EXTT5=
EXTT6=
EXTT7=
EXTT8=
EXTT9=
EXTT10=
EXTT11=
PLAYORDER=
